<!DOCTYPE svg PUBLIC "-//W3C//DTD SVG 20010904//EN" "http://www.w3.org/TR/2001/REC-SVG-20010904/DTD/svg10.dtd">
<svg version="1.0" xmlns="http://www.w3.org/2000/svg" width="561px" height="168px" viewBox="0 0 5610 1680" preserveAspectRatio="xMidYMid meet">
<g id="layer101" fill="#333333" stroke="none">
 <path d="M430 1669 c-47 -19 -86 -57 -109 -108 -19 -39 -32 -53 -57 -61 -96 -32 -162 -109 -150 -175 6 -29 4 -33 -18 -39 -50 -12 -96 -101 -96 -186 0 -51 40 -144 66 -154 13 -5 11 -11 -10 -36 -53 -64 -57 -164 -8 -222 20 -24 27 -44 29 -80 2 -61 28 -107 75 -132 l36 -20 -5 -57 c-9 -98 47 -179 124 -179 30 0 30 0 25 -52 -3 -44 0 -59 20 -87 30 -45 89 -74 159 -79 48 -4 65 0 107 23 28 15 63 41 79 57 l28 29 3 372 c2 205 -1 533 -7 730 -11 404 -10 401 -90 444 -34 18 -59 23 -110 22 -36 0 -77 -5 -91 -10z m84 -109 c7 -92 -5 -133 -55 -174 -16 -14 -29 -32 -29 -40 0 -26 44 -19 72 12 54 58 58 71 58 175 0 97 0 98 23 92 12 -4 35 -20 51 -35 l29 -29 5 -160 5 -161 -64 0 c-85 0 -126 -13 -167 -52 -38 -37 -82 -116 -82 -148 0 -40 35 -23 60 29 12 28 38 65 57 83 32 31 39 33 112 36 l78 4 7 -32 c3 -18 6 -70 6 -116 l0 -84 -28 0 c-16 0 -52 -7 -80 -15 -41 -13 -52 -20 -52 -37 0 -18 4 -19 33 -14 17 4 53 9 80 12 l47 7 0 -142 c0 -106 -4 -149 -15 -170 -15 -30 -86 -71 -122 -71 -35 0 -53 -11 -53 -32 0 -19 5 -20 54 -15 29 3 72 15 95 26 l41 21 0 -193 c0 -218 0 -219 -76 -263 -78 -46 -187 -22 -221 48 -16 33 -3 80 37 129 53 66 32 91 -38 44 -36 -24 -74 -31 -107 -19 -24 10 -45 58 -45 105 0 51 69 172 146 258 l51 56 67 -2 c58 -2 66 0 66 17 0 22 -19 30 -75 30 l-43 0 -30 73 c-22 53 -36 73 -51 75 -28 4 -27 -13 5 -93 l26 -65 -51 -55 c-27 -31 -65 -80 -83 -110 -38 -63 -65 -70 -103 -29 -52 56 -40 124 31 182 24 20 35 36 31 46 -10 25 -34 19 -77 -21 -36 -32 -43 -35 -56 -21 -23 22 -28 79 -11 120 18 44 53 68 106 75 81 11 79 53 -2 53 -31 0 -62 6 -75 16 -55 38 -69 138 -29 209 33 58 54 56 125 -9 33 -31 64 -56 70 -56 29 0 16 35 -38 100 -69 81 -79 109 -56 145 20 30 77 68 128 86 29 10 40 21 52 54 25 63 87 116 147 124 3 1 9 -35 13 -79z"/>
 <path d="M862 1600 l-74 -80 2 -270 c1 -232 -1 -273 -15 -286 -30 -30 -9 -94 31 -94 34 0 54 20 54 55 0 18 -4 37 -10 40 -6 4 -10 53 -10 116 l0 109 33 0 c19 0 48 -7 66 -16 29 -14 34 -14 56 0 27 18 34 63 13 84 -17 17 -63 15 -78 -3 -8 -9 -30 -15 -56 -15 l-44 0 0 128 0 128 68 67 c91 90 102 89 102 -11 0 -43 -5 -83 -11 -89 -15 -15 -7 -74 13 -87 30 -18 72 4 76 40 2 19 -3 36 -12 44 -12 9 -16 32 -16 91 l0 79 64 0 65 0 40 -57 c25 -34 41 -67 41 -84 0 -49 66 -73 92 -35 22 31 1 86 -31 86 -9 0 -38 32 -66 70 l-50 69 -135 0 -135 0 -73 -79z"/>
 <path d="M3870 1450 c0 -6 12 -21 27 -34 l27 -23 -21 -54 c-11 -30 -30 -78 -42 -106 l-21 -53 24 0 c20 0 27 10 46 63 12 34 25 65 29 70 4 4 15 -24 25 -63 16 -61 21 -70 42 -70 l23 0 -39 116 c-47 138 -62 164 -95 164 -14 0 -25 -5 -25 -10z"/>
 <path d="M5097 1440 c4 -17 11 -19 42 -14 28 4 42 2 54 -11 29 -29 21 -40 -27 -37 -64 5 -86 -19 -86 -97 0 -53 3 -62 27 -81 21 -17 38 -20 82 -18 l56 3 3 117 c3 146 -4 158 -97 158 -54 0 -59 -2 -54 -20z m95 -107 c13 -11 18 -30 18 -64 0 -39 -4 -49 -20 -54 -13 -4 -31 0 -45 9 -42 28 -28 126 17 126 6 0 20 -7 30 -17z"/>
 <path d="M1162 1394 c-41 -29 -19 -94 32 -94 13 0 29 7 36 15 9 11 34 15 100 15 l88 0 22 -60 c13 -34 21 -62 19 -64 -2 -3 -35 -27 -74 -55 -54 -40 -78 -51 -107 -51 -33 0 -38 3 -38 24 0 13 7 29 15 36 16 13 20 57 7 76 -26 39 -92 14 -92 -35 0 -16 7 -34 15 -41 8 -7 15 -23 15 -36 0 -23 -4 -24 -58 -24 -56 0 -60 -2 -91 -40 -17 -22 -38 -40 -45 -40 -19 0 -46 -33 -46 -57 0 -25 30 -53 57 -53 28 0 53 31 53 66 1 16 9 39 19 52 18 20 27 22 131 22 l112 0 94 68 c51 37 94 72 94 79 0 6 -16 50 -36 97 l-36 86 -102 0 c-73 1 -106 5 -120 15 -25 19 -36 19 -64 -1z"/>
 <path d="M2700 1373 c1 -22 20 -35 43 -29 55 13 79 -25 30 -46 -44 -19 -63 -39 -63 -68 0 -39 21 -52 77 -48 35 2 48 7 48 18 0 11 -11 15 -40 15 -54 0 -61 28 -10 45 46 15 69 48 56 82 -5 14 -17 28 -26 32 -23 9 -115 8 -115 -1z"/>
 <path d="M2902 1357 c-17 -18 -22 -36 -22 -78 0 -70 25 -99 86 -99 54 0 74 17 81 68 l6 42 -67 0 c-73 0 -87 16 -41 46 21 14 31 15 51 5 28 -12 44 -7 44 14 0 17 -23 25 -74 25 -32 0 -48 -6 -64 -23z m108 -106 c0 -14 -30 -41 -45 -41 -15 0 -45 27 -45 41 0 5 20 9 45 9 25 0 45 -4 45 -9z"/>
 <path d="M3100 1360 c-15 -15 -20 -33 -20 -78 0 -75 24 -102 91 -102 51 0 60 5 52 26 -4 11 -14 13 -35 9 -41 -10 -68 17 -68 66 0 48 30 72 78 63 25 -5 32 -3 32 9 0 33 -98 39 -130 7z"/>
 <path d="M3279 1363 c-9 -10 -15 -48 -18 -100 -3 -77 -2 -83 17 -83 18 0 20 8 24 76 2 52 8 78 18 84 21 14 28 12 50 -10 16 -16 20 -33 20 -85 0 -58 2 -65 20 -65 19 0 20 7 20 100 0 82 -3 100 -15 100 -8 0 -15 -5 -15 -10 0 -7 -6 -7 -19 0 -30 16 -87 12 -102 -7z"/>
 <path d="M3490 1281 l0 -98 54 -2 c49 -1 54 1 49 18 -3 12 -11 17 -19 14 -31 -11 -44 17 -44 93 0 67 -2 74 -20 74 -19 0 -20 -7 -20 -99z"/>
 <path d="M3620 1280 c0 -93 1 -100 20 -100 19 0 20 7 20 100 0 93 -1 100 -20 100 -19 0 -20 -7 -20 -100z"/>
 <path d="M3742 1368 c-7 -7 -12 -42 -12 -85 0 -58 -3 -73 -15 -73 -8 0 -15 -7 -15 -15 0 -8 6 -15 14 -15 8 0 16 -10 18 -22 5 -34 38 -37 38 -4 0 22 4 26 30 26 20 0 30 5 30 15 0 10 -10 15 -30 15 l-31 0 3 68 c3 64 4 67 27 64 24 -2 44 15 35 30 -8 12 -79 9 -92 -4z"/>
 <path d="M4140 1280 c0 -82 3 -100 15 -100 8 0 15 5 15 12 0 9 3 9 12 0 15 -15 84 -16 93 -2 4 7 12 7 25 0 10 -5 35 -10 54 -10 47 0 56 19 56 119 0 74 -2 81 -20 81 -17 0 -19 -8 -22 -76 -2 -62 -7 -79 -21 -88 -15 -9 -22 -7 -38 13 -14 17 -19 39 -19 87 0 57 -2 64 -20 64 -18 0 -20 -7 -20 -79 0 -85 -11 -102 -51 -81 -16 9 -19 22 -19 85 0 68 -2 75 -20 75 -19 0 -20 -7 -20 -100z"/>
 <path d="M4467 1362 c-40 -44 -4 -102 63 -102 33 0 40 -3 40 -19 0 -25 -30 -34 -65 -21 -35 13 -55 -7 -28 -27 22 -17 107 -17 121 0 6 6 12 51 14 100 3 77 1 87 -14 87 -10 0 -18 -5 -18 -12 0 -9 -3 -9 -12 0 -19 19 -82 15 -101 -6z m84 -22 c10 -6 19 -20 19 -32 0 -18 -4 -20 -32 -14 -43 8 -55 21 -38 41 15 18 24 19 51 5z"/>
 <path d="M4670 1280 c0 -82 3 -100 15 -100 8 0 15 5 15 12 0 9 3 9 12 0 18 -18 93 -15 109 4 7 9 15 51 17 100 l5 84 -27 0 c-26 0 -26 -1 -26 -73 0 -71 -10 -97 -36 -97 -30 0 -44 31 -44 101 0 62 -2 69 -20 69 -19 0 -20 -7 -20 -100z"/>
 <path d="M4887 1362 c-40 -44 -4 -102 63 -102 33 0 40 -3 40 -19 0 -25 -30 -34 -65 -21 -35 13 -55 -7 -28 -27 22 -17 107 -17 121 0 6 6 12 51 14 100 3 77 1 87 -14 87 -10 0 -18 -5 -18 -12 0 -9 -3 -9 -12 0 -19 19 -82 15 -101 -6z m84 -22 c10 -6 19 -20 19 -32 0 -18 -4 -20 -32 -14 -43 8 -55 21 -38 41 15 18 24 19 51 5z"/>
 <path d="M5312 1357 c-17 -18 -22 -36 -22 -78 0 -70 25 -99 86 -99 54 0 74 17 81 68 l6 42 -67 0 c-73 0 -87 16 -41 46 21 14 31 15 51 5 28 -12 44 -7 44 14 0 17 -23 25 -74 25 -32 0 -48 -6 -64 -23z m108 -106 c0 -14 -30 -41 -45 -41 -15 0 -45 27 -45 41 0 5 20 9 45 9 25 0 45 -4 45 -9z"/>
 <path d="M5500 1281 l0 -98 54 -2 c49 -1 54 1 49 18 -3 12 -11 17 -19 14 -31 -11 -44 17 -44 93 0 67 -2 74 -20 74 -19 0 -20 -7 -20 -99z"/>
 <path d="M3620 1119 c0 -15 5 -20 22 -17 34 5 37 38 4 38 -20 0 -26 -5 -26 -21z"/>
 <path d="M1386 1048 c-9 -12 -16 -28 -16 -35 0 -22 38 -53 64 -53 38 0 56 -35 56 -107 l0 -63 -63 0 c-58 0 -66 3 -95 33 -19 19 -32 43 -32 58 0 34 -18 49 -57 49 -45 0 -64 -37 -39 -75 9 -14 24 -25 34 -25 10 0 38 -20 62 -45 l44 -45 73 0 73 0 0 -29 c0 -26 -7 -31 -90 -70 -50 -22 -106 -41 -124 -41 -43 0 -71 -29 -62 -65 9 -37 48 -52 81 -31 14 9 25 23 25 31 0 8 47 36 110 66 l110 52 0 147 0 146 -30 29 c-16 16 -30 38 -30 50 0 47 -66 63 -94 23z"/>
 <path d="M3378 889 c-20 -3 -48 -13 -63 -23 -48 -32 -55 -67 -55 -281 l0 -195 -45 0 -45 0 0 -45 0 -45 45 0 45 0 0 -73 0 -73 45 -12 c25 -7 50 -12 55 -12 6 0 10 36 10 85 l0 85 75 0 75 0 0 45 0 45 -75 0 -75 0 0 180 0 181 26 26 c22 22 31 25 70 19 l45 -6 -3 48 -3 47 -45 5 c-25 3 -61 3 -82 -1z"/>
 <path d="M4795 889 c-96 -12 -165 -64 -207 -154 -32 -69 -32 -217 -1 -286 54 -119 176 -178 322 -156 89 13 150 58 193 141 30 56 37 203 14 273 -43 130 -169 201 -321 182z m143 -118 c94 -66 104 -261 18 -347 -115 -115 -276 -18 -276 167 0 170 137 266 258 180z"/>
 <path d="M2030 872 c-55 -30 -80 -75 -80 -144 0 -72 21 -120 66 -155 45 -34 143 -63 215 -63 58 0 59 -1 59 -27 0 -16 -9 -42 -20 -60 -33 -55 -114 -64 -213 -25 -43 17 -54 11 -63 -34 -5 -27 -2 -31 33 -48 25 -13 68 -21 124 -24 129 -7 189 19 231 101 19 37 22 62 25 197 2 85 5 185 6 223 l3 67 -53 0 c-50 0 -53 -1 -53 -25 0 -31 -5 -31 -54 3 -53 36 -171 44 -226 14z m185 -82 c52 -25 76 -66 82 -141 l6 -59 -49 0 c-72 0 -124 18 -161 55 -50 50 -41 124 19 150 44 19 55 18 103 -5z"/>
 <path d="M3757 876 c-55 -20 -103 -61 -134 -113 -23 -40 -28 -61 -31 -139 -6 -122 13 -185 73 -252 60 -67 109 -85 213 -81 67 3 85 8 120 33 62 43 102 128 102 218 l0 68 -200 0 -200 0 0 33 c0 47 39 108 85 134 46 26 144 31 221 12 25 -6 47 -9 50 -7 2 3 5 22 7 43 2 37 0 39 -38 51 -54 17 -220 17 -268 0z m230 -382 c-13 -78 -73 -128 -146 -121 -67 7 -118 56 -136 130 l-7 27 147 0 148 0 -6 -36z"/>
 <path d="M5267 875 c-21 -7 -41 -15 -43 -18 -5 -5 16 -87 22 -87 2 0 33 10 68 21 73 24 118 21 160 -12 57 -45 19 -116 -80 -152 -112 -40 -154 -87 -154 -173 0 -103 76 -165 204 -165 79 0 146 20 146 44 0 18 -20 77 -27 77 -2 0 -14 -5 -26 -12 -62 -33 -156 -27 -177 12 -30 56 -2 92 101 131 38 14 79 39 106 64 42 41 43 43 43 107 0 123 -69 178 -220 178 -47 -1 -102 -7 -123 -15z"/>
 <path d="M2580 703 c0 -98 -3 -229 -7 -290 l-6 -113 51 0 c51 0 51 0 58 36 l6 35 27 -24 c43 -41 86 -57 150 -57 71 0 106 12 145 48 60 56 66 85 66 325 l0 217 -54 0 -55 0 -3 -202 c-3 -180 -5 -207 -23 -235 -40 -68 -123 -79 -186 -26 -53 45 -59 72 -59 278 l0 185 -55 0 -55 0 0 -177z"/>
 <path d="M4220 590 l0 -290 50 0 50 0 0 48 0 47 21 -32 c34 -54 88 -78 162 -74 14 1 17 11 17 55 l0 55 -41 -1 c-70 -1 -122 52 -139 141 -5 29 -10 118 -10 197 l0 144 -55 0 -55 0 0 -290z"/>
 <path d="M986 825 c-11 -11 -38 -15 -105 -15 l-91 0 0 -329 c0 -280 -2 -330 -15 -341 -39 -32 -3 -95 49 -87 19 3 62 -7 113 -26 45 -16 89 -27 97 -24 8 3 30 29 48 56 28 44 38 51 66 51 25 0 35 6 44 25 15 33 -3 75 -32 75 -25 0 -120 86 -120 109 0 25 -20 41 -50 41 -33 0 -50 -17 -50 -50 0 -33 17 -50 50 -50 27 0 100 -64 100 -88 0 -7 -16 -36 -36 -66 l-35 -54 -80 26 c-60 20 -79 31 -79 44 0 10 -7 21 -15 24 -13 5 -15 34 -15 175 l0 169 54 0 c39 0 55 -4 60 -15 9 -25 63 -19 82 10 25 39 6 75 -40 75 -19 0 -38 -4 -41 -10 -3 -5 -31 -10 -61 -10 l-54 0 0 110 0 110 64 0 c42 0 75 -6 94 -17 25 -14 35 -15 56 -5 21 9 26 19 26 46 0 50 -50 75 -84 41z"/>
 <path d="M1086 694 c-20 -20 -21 -58 -1 -74 11 -9 15 -33 15 -90 0 -57 -4 -81 -15 -90 -33 -27 -7 -90 37 -90 28 0 108 -67 108 -90 0 -25 27 -50 54 -50 29 0 59 32 54 59 -4 27 80 130 108 131 27 0 44 19 44 50 0 33 -17 50 -50 50 -31 0 -50 -17 -50 -45 0 -23 -83 -126 -109 -136 -20 -8 -100 59 -101 84 0 9 -9 26 -20 37 -16 16 -20 33 -20 95 0 44 4 75 10 75 6 0 15 11 22 25 23 52 -46 100 -86 59z"/>
 </g>
<g id="layer102" fill="#ffffff" stroke="none">
 <path d="M430 1669 c-47 -19 -86 -57 -109 -108 -19 -39 -32 -53 -57 -61 -96 -32 -162 -109 -150 -175 6 -29 4 -33 -18 -39 -50 -12 -96 -101 -96 -186 0 -51 40 -144 66 -154 13 -5 11 -11 -10 -36 -53 -64 -57 -164 -8 -222 20 -24 27 -44 29 -80 2 -61 28 -107 75 -132 l36 -20 -5 -57 c-9 -98 47 -179 124 -179 30 0 30 0 25 -52 -3 -44 0 -59 20 -87 30 -45 89 -74 159 -79 48 -4 65 0 107 23 28 15 63 41 79 57 l28 29 3 372 c2 205 -1 533 -7 730 -11 404 -10 401 -90 444 -34 18 -59 23 -110 22 -36 0 -77 -5 -91 -10z m84 -109 c7 -92 -5 -133 -55 -174 -16 -14 -29 -32 -29 -40 0 -26 44 -19 72 12 54 58 58 71 58 175 0 97 0 98 23 92 12 -4 35 -20 51 -35 l29 -29 5 -160 5 -161 -64 0 c-85 0 -126 -13 -167 -52 -38 -37 -82 -116 -82 -148 0 -40 35 -23 60 29 12 28 38 65 57 83 32 31 39 33 112 36 l78 4 7 -32 c3 -18 6 -70 6 -116 l0 -84 -28 0 c-16 0 -52 -7 -80 -15 -41 -13 -52 -20 -52 -37 0 -18 4 -19 33 -14 17 4 53 9 80 12 l47 7 0 -142 c0 -106 -4 -149 -15 -170 -15 -30 -86 -71 -122 -71 -35 0 -53 -11 -53 -32 0 -19 5 -20 54 -15 29 3 72 15 95 26 l41 21 0 -193 c0 -218 0 -219 -76 -263 -78 -46 -187 -22 -221 48 -16 33 -3 80 37 129 53 66 32 91 -38 44 -36 -24 -74 -31 -107 -19 -24 10 -45 58 -45 105 0 51 69 172 146 258 l51 56 67 -2 c58 -2 66 0 66 17 0 22 -19 30 -75 30 l-43 0 -30 73 c-22 53 -36 73 -51 75 -28 4 -27 -13 5 -93 l26 -65 -51 -55 c-27 -31 -65 -80 -83 -110 -38 -63 -65 -70 -103 -29 -52 56 -40 124 31 182 24 20 35 36 31 46 -10 25 -34 19 -77 -21 -36 -32 -43 -35 -56 -21 -23 22 -28 79 -11 120 18 44 53 68 106 75 81 11 79 53 -2 53 -31 0 -62 6 -75 16 -55 38 -69 138 -29 209 33 58 54 56 125 -9 33 -31 64 -56 70 -56 29 0 16 35 -38 100 -69 81 -79 109 -56 145 20 30 77 68 128 86 29 10 40 21 52 54 25 63 87 116 147 124 3 1 9 -35 13 -79z"/>
 <path d="M862 1600 l-74 -80 2 -270 c1 -232 -1 -273 -15 -286 -30 -30 -9 -94 31 -94 34 0 54 20 54 55 0 18 -4 37 -10 40 -6 4 -10 53 -10 116 l0 109 33 0 c19 0 48 -7 66 -16 29 -14 34 -14 56 0 27 18 34 63 13 84 -17 17 -63 15 -78 -3 -8 -9 -30 -15 -56 -15 l-44 0 0 128 0 128 68 67 c91 90 102 89 102 -11 0 -43 -5 -83 -11 -89 -15 -15 -7 -74 13 -87 30 -18 72 4 76 40 2 19 -3 36 -12 44 -12 9 -16 32 -16 91 l0 79 64 0 65 0 40 -57 c25 -34 41 -67 41 -84 0 -49 66 -73 92 -35 22 31 1 86 -31 86 -9 0 -38 32 -66 70 l-50 69 -135 0 -135 0 -73 -79z"/>
 <path d="M1162 1394 c-41 -29 -19 -94 32 -94 13 0 29 7 36 15 9 11 34 15 100 15 l88 0 22 -60 c13 -34 21 -62 19 -64 -2 -3 -35 -27 -74 -55 -54 -40 -78 -51 -107 -51 -33 0 -38 3 -38 24 0 13 7 29 15 36 16 13 20 57 7 76 -26 39 -92 14 -92 -35 0 -16 7 -34 15 -41 8 -7 15 -23 15 -36 0 -23 -4 -24 -58 -24 -56 0 -60 -2 -91 -40 -17 -22 -38 -40 -45 -40 -19 0 -46 -33 -46 -57 0 -25 30 -53 57 -53 28 0 53 31 53 66 1 16 9 39 19 52 18 20 27 22 131 22 l112 0 94 68 c51 37 94 72 94 79 0 6 -16 50 -36 97 l-36 86 -102 0 c-73 1 -106 5 -120 15 -25 19 -36 19 -64 -1z"/>
 <path d="M1386 1048 c-9 -12 -16 -28 -16 -35 0 -22 38 -53 64 -53 38 0 56 -35 56 -107 l0 -63 -63 0 c-58 0 -66 3 -95 33 -19 19 -32 43 -32 58 0 34 -18 49 -57 49 -45 0 -64 -37 -39 -75 9 -14 24 -25 34 -25 10 0 38 -20 62 -45 l44 -45 73 0 73 0 0 -29 c0 -26 -7 -31 -90 -70 -50 -22 -106 -41 -124 -41 -43 0 -71 -29 -62 -65 9 -37 48 -52 81 -31 14 9 25 23 25 31 0 8 47 36 110 66 l110 52 0 147 0 146 -30 29 c-16 16 -30 38 -30 50 0 47 -66 63 -94 23z"/>
 <path d="M3378 889 c-20 -3 -48 -13 -63 -23 -48 -32 -55 -67 -55 -281 l0 -195 -45 0 -45 0 0 -45 0 -45 45 0 45 0 0 -73 0 -73 45 -12 c25 -7 50 -12 55 -12 6 0 10 36 10 85 l0 85 75 0 75 0 0 45 0 45 -75 0 -75 0 0 180 0 181 26 26 c22 22 31 25 70 19 l45 -6 -3 48 -3 47 -45 5 c-25 3 -61 3 -82 -1z"/>
 <path d="M4795 889 c-96 -12 -165 -64 -207 -154 -32 -69 -32 -217 -1 -286 54 -119 176 -178 322 -156 89 13 150 58 193 141 30 56 37 203 14 273 -43 130 -169 201 -321 182z m143 -118 c94 -66 104 -261 18 -347 -115 -115 -276 -18 -276 167 0 170 137 266 258 180z"/>
 <path d="M2030 872 c-55 -30 -80 -75 -80 -144 0 -72 21 -120 66 -155 45 -34 143 -63 215 -63 58 0 59 -1 59 -27 0 -16 -9 -42 -20 -60 -33 -55 -114 -64 -213 -25 -43 17 -54 11 -63 -34 -5 -27 -2 -31 33 -48 25 -13 68 -21 124 -24 129 -7 189 19 231 101 19 37 22 62 25 197 2 85 5 185 6 223 l3 67 -53 0 c-50 0 -53 -1 -53 -25 0 -31 -5 -31 -54 3 -53 36 -171 44 -226 14z m185 -82 c52 -25 76 -66 82 -141 l6 -59 -49 0 c-72 0 -124 18 -161 55 -50 50 -41 124 19 150 44 19 55 18 103 -5z"/>
 <path d="M3757 876 c-55 -20 -103 -61 -134 -113 -23 -40 -28 -61 -31 -139 -6 -122 13 -185 73 -252 60 -67 109 -85 213 -81 67 3 85 8 120 33 62 43 102 128 102 218 l0 68 -200 0 -200 0 0 33 c0 47 39 108 85 134 46 26 144 31 221 12 25 -6 47 -9 50 -7 2 3 5 22 7 43 2 37 0 39 -38 51 -54 17 -220 17 -268 0z m230 -382 c-13 -78 -73 -128 -146 -121 -67 7 -118 56 -136 130 l-7 27 147 0 148 0 -6 -36z"/>
 <path d="M5267 875 c-21 -7 -41 -15 -43 -18 -5 -5 16 -87 22 -87 2 0 33 10 68 21 73 24 118 21 160 -12 57 -45 19 -116 -80 -152 -112 -40 -154 -87 -154 -173 0 -103 76 -165 204 -165 79 0 146 20 146 44 0 18 -20 77 -27 77 -2 0 -14 -5 -26 -12 -62 -33 -156 -27 -177 12 -30 56 -2 92 101 131 38 14 79 39 106 64 42 41 43 43 43 107 0 123 -69 178 -220 178 -47 -1 -102 -7 -123 -15z"/>
 <path d="M2580 703 c0 -98 -3 -229 -7 -290 l-6 -113 51 0 c51 0 51 0 58 36 l6 35 27 -24 c43 -41 86 -57 150 -57 71 0 106 12 145 48 60 56 66 85 66 325 l0 217 -54 0 -55 0 -3 -202 c-3 -180 -5 -207 -23 -235 -40 -68 -123 -79 -186 -26 -53 45 -59 72 -59 278 l0 185 -55 0 -55 0 0 -177z"/>
 <path d="M4220 590 l0 -290 50 0 50 0 0 48 0 47 21 -32 c34 -54 88 -78 162 -74 14 1 17 11 17 55 l0 55 -41 -1 c-70 -1 -122 52 -139 141 -5 29 -10 118 -10 197 l0 144 -55 0 -55 0 0 -290z"/>
 <path d="M986 825 c-11 -11 -38 -15 -105 -15 l-91 0 0 -329 c0 -280 -2 -330 -15 -341 -39 -32 -3 -95 49 -87 19 3 62 -7 113 -26 45 -16 89 -27 97 -24 8 3 30 29 48 56 28 44 38 51 66 51 25 0 35 6 44 25 15 33 -3 75 -32 75 -25 0 -120 86 -120 109 0 25 -20 41 -50 41 -33 0 -50 -17 -50 -50 0 -33 17 -50 50 -50 27 0 100 -64 100 -88 0 -7 -16 -36 -36 -66 l-35 -54 -80 26 c-60 20 -79 31 -79 44 0 10 -7 21 -15 24 -13 5 -15 34 -15 175 l0 169 54 0 c39 0 55 -4 60 -15 9 -25 63 -19 82 10 25 39 6 75 -40 75 -19 0 -38 -4 -41 -10 -3 -5 -31 -10 -61 -10 l-54 0 0 110 0 110 64 0 c42 0 75 -6 94 -17 25 -14 35 -15 56 -5 21 9 26 19 26 46 0 50 -50 75 -84 41z"/>
 <path d="M1086 694 c-20 -20 -21 -58 -1 -74 11 -9 15 -33 15 -90 0 -57 -4 -81 -15 -90 -33 -27 -7 -90 37 -90 28 0 108 -67 108 -90 0 -25 27 -50 54 -50 29 0 59 32 54 59 -4 27 80 130 108 131 27 0 44 19 44 50 0 33 -17 50 -50 50 -31 0 -50 -17 -50 -45 0 -23 -83 -126 -109 -136 -20 -8 -100 59 -101 84 0 9 -9 26 -20 37 -16 16 -20 33 -20 95 0 44 4 75 10 75 6 0 15 11 22 25 23 52 -46 100 -86 59z"/>
 </g>

</svg>