<?xml version="1.0" encoding="utf-8"?>
<!-- Generator: Adobe Illustrator 23.0.3, SVG Export Plug-In . SVG Version: 6.00 Build 0)  -->
<svg version="1.1" id="Layer_1" xmlns="http://www.w3.org/2000/svg" xmlns:xlink="http://www.w3.org/1999/xlink" x="0px" y="0px"
	 viewBox="0 0 344.12 96.35" style="enable-background:new 0 0 344.12 96.35;" xml:space="preserve">
<style type="text/css">
	.st0{fill:#052B47;}
	.st1{fill:#59C6D0;}
</style>
<g>
	<path class="st0" d="M92.57,46.18H82.6l-9.51-31.71h8.47l6.07,25.42l5.93-25.42h8.38L92.57,46.18z"/>
	<path class="st0" d="M125.27,34.54v1.36h-16.58c0.23,3.49,2.27,5.21,5.3,5.21c2.54,0,4.03-1.27,5.12-2.99l5.98,2.85
		c-2.36,3.71-6.12,5.84-11.51,5.84c-7.88,0-12.73-5.35-12.73-12.78c0-7.48,4.53-12.78,12.28-12.78
		C120.65,21.26,125.27,26.34,125.27,34.54z M108.65,31.37h8.92c-0.18-3.35-1.86-4.76-4.49-4.76
		C110.73,26.61,108.87,27.97,108.65,31.37z"/>
	<path class="st0" d="M144.03,21.4v7.25c-0.86-0.05-1.18-0.05-1.5-0.05c-3.67,0-6.57,1.54-6.57,8.15v9.42h-7.61V21.94h7.29v3.9
		c1.68-3.35,3.99-4.58,6.52-4.58C142.8,21.26,143.39,21.31,144.03,21.4z"/>
	<path class="st0" d="M166.67,24.93l-3.71,4.17c-2.13-1.63-4.12-2.45-6.52-2.45c-2.4,0-3.35,0.73-3.35,1.86
		c0,1.27,0.77,1.68,5.66,2.63c5.75,1.09,8.47,3.44,8.47,7.84c0,4.62-4.12,7.84-11.33,7.84c-5.62,0-9.15-1.63-12-4.12l3.62-4.35
		c2.54,2.17,5.07,2.94,7.47,2.94c2.9,0,4.21-0.77,4.21-1.99s-0.45-1.77-5.44-2.72c-5.75-1.09-8.56-3.31-8.56-7.57
		c0-4.98,4.76-7.75,10.92-7.75C160.78,21.26,164.32,22.8,166.67,24.93z"/>
	<path class="st0" d="M191.09,28.92v11.87c0,2.04,0.14,3.67,0.82,5.39h-7.38c-0.41-0.72-0.68-1.54-0.86-2.4
		c-1.68,2.22-4.12,3.04-6.98,3.04c-5.12,0-8.02-3.13-8.02-7.43c0-4.67,2.76-7.43,10.24-8.38l4.58-0.54v-1.09
		c0-2.17-0.59-2.94-3.04-2.94c-2.31,0-3.22,0.82-3.31,2.81h-7.52c0.18-5.26,4.17-7.97,10.96-7.97
		C188.14,21.26,191.09,24.07,191.09,28.92z M180.67,35.4c-3.13,0.45-4.26,1.4-4.26,3.17c0,1.59,0.95,2.54,2.76,2.54
		c2.4,0,4.3-1.63,4.3-3.99v-2.13L180.67,35.4z M183.16,19.32h-5.53l4.58-7.16h9.01L183.16,19.32z"/>
	<path class="st0" d="M203.95,22.53h5.66v5.35h-5.66v9.97c0,1.99,0.59,2.9,2.72,2.9c1.22,0,2.17-0.18,3.31-0.45V46
		c-1.59,0.5-3.44,0.82-5.48,0.82c-6.12,0-8.15-2.9-8.15-7.79V27.88h-3.26v-5.35h3.26v-6.25h7.61V22.53z"/>
	<path class="st0" d="M220.76,14.6c0,2.31-2.04,4.12-4.35,4.12c-2.31,0-4.35-1.81-4.35-4.12c0-2.31,2.04-4.12,4.35-4.12
		C218.72,10.48,220.76,12.29,220.76,14.6z M220.21,46.18h-7.61V21.94h7.61V46.18z"/>
	<path class="st0" d="M232.17,46.18h-7.61V14.47h7.61V46.18z"/>
</g>
<g>
	<path class="st0" d="M108.57,61.43l-7.7,1.95c-1.31-3.22-3.22-4.8-6.61-4.8c-4.62,0-7.47,3.58-7.47,10.01
		c0,6.43,2.67,10.19,7.61,10.19c3.85,0,5.93-1.95,7.29-5.53l7.57,2.27c-2.54,6.48-8.33,9.83-15.13,9.83
		c-8.02,0-15.58-4.85-15.58-16.72c0-11.64,7.57-16.63,15.67-16.63C100.28,52.01,105.9,54.5,108.57,61.43z"/>
	<path class="st0" d="M136.43,72.39c0,7.66-5.07,12.78-13.09,12.78c-8.29,0-13.09-5.3-13.09-12.78c0-7.52,4.89-12.78,13.09-12.78
		C131.4,59.62,136.43,65.1,136.43,72.39z M118.22,72.3c0,4.62,1.9,6.93,5.12,6.93c3.17,0,5.07-2.31,5.07-6.93
		c0-4.71-1.99-6.75-5.07-6.75C120.21,65.55,118.22,67.59,118.22,72.3z"/>
	<path class="st0" d="M162.47,68.72v15.81h-7.61V70.9c0-3.31-0.82-4.89-3.35-4.89c-2.58,0-4.35,2.13-4.35,5.35v13.18h-7.61V60.3
		h7.29v3.26c1.81-2.76,4.44-3.94,7.66-3.94C159.53,59.62,162.47,62.88,162.47,68.72z"/>
	<path class="st0" d="M190.29,84.53h-7.29V82c-1.77,2.17-4.3,3.17-7.02,3.17c-6.39,0-10.56-5.3-10.56-12.78
		c0-7.79,4.85-12.78,10.87-12.78c2.81,0,4.89,0.91,6.39,2.49v-9.29h7.61V84.53z M173.39,72.44c0,4.53,1.81,6.8,4.94,6.8
		c2.99,0,4.85-2.17,4.85-6.8c0-4.76-1.99-6.93-4.85-6.93C175.16,65.51,173.39,67.86,173.39,72.44z"/>
	<path class="st0" d="M219.64,72.39c0,7.66-5.07,12.78-13.09,12.78c-8.29,0-13.09-5.3-13.09-12.78c0-7.52,4.89-12.78,13.09-12.78
		C214.61,59.62,219.64,65.1,219.64,72.39z M201.43,72.3c0,4.62,1.9,6.93,5.12,6.93c3.17,0,5.07-2.31,5.07-6.93
		c0-4.71-1.99-6.75-5.07-6.75C203.42,65.55,201.43,67.59,201.43,72.3z"/>
	<path class="st0" d="M258.91,68.86v15.67h-7.61V71.21c0-3.76-0.63-5.21-2.95-5.21c-2.17,0-3.71,1.95-3.71,5.03v13.5h-7.61V71.21
		c0-3.76-0.45-5.21-2.95-5.21c-2.13,0-3.71,1.95-3.71,5.03v13.5h-7.61V60.3h7.29v2.81c1.86-2.4,3.94-3.49,7.02-3.49
		c3.26,0,5.53,1.45,6.61,3.94c1.81-2.67,4.39-3.94,7.66-3.94C256.33,59.62,258.91,62.88,258.91,68.86z"/>
	<path class="st0" d="M270.64,84.53h-7.61V60.3h7.61V84.53z M269.19,57.67h-5.53l4.58-7.16h9.01L269.19,57.67z"/>
	<path class="st0" d="M297.91,68.72v15.81h-7.61V70.9c0-3.31-0.82-4.89-3.35-4.89c-2.58,0-4.35,2.13-4.35,5.35v13.18h-7.61V60.3
		h7.29v3.26c1.81-2.76,4.44-3.94,7.66-3.94C294.97,59.62,297.91,62.88,297.91,68.72z"/>
	<path class="st0" d="M310.18,52.96c0,2.31-2.04,4.12-4.35,4.12c-2.31,0-4.35-1.81-4.35-4.12s2.04-4.12,4.35-4.12
		C308.14,48.83,310.18,50.65,310.18,52.96z M309.64,84.53h-7.61V60.3h7.61V84.53z"/>
	<path class="st0" d="M338.99,72.39c0,7.66-5.07,12.78-13.09,12.78c-8.29,0-13.09-5.3-13.09-12.78c0-7.52,4.89-12.78,13.09-12.78
		C333.97,59.62,338.99,65.1,338.99,72.39z M320.78,72.3c0,4.62,1.9,6.93,5.12,6.93c3.17,0,5.07-2.31,5.07-6.93
		c0-4.71-1.99-6.75-5.07-6.75C322.78,65.55,320.78,67.59,320.78,72.3z"/>
</g>
<g>
	<path class="st1" d="M6.03,47.75c0,13.29,0,26.58,0,39.86c0.04,0.07,0.11,0.13,0.13,0.2c0.44,2.37,2.58,4.22,5.3,4.21
		C32.71,91.98,53.96,92,75.22,92c3.33,0,5.39-2.22,5.39-5.81c0-19.56,0-39.12,0-58.68c0-3.5-2.07-5.76-5.27-5.77
		c-4.58-0.01-9.16,0-13.75,0c-0.27,0-0.55,0-0.87,0c0-0.42,0-0.73,0-1.03c0-3.26,0.01-6.53,0-9.79c-0.01-1.88-0.75-3.38-2.16-4.43
		c-0.56-0.42-1.24-0.65-1.87-0.96c-12.22,0-24.44,0-36.67,0c-0.04,0.04-0.07,0.09-0.12,0.11c-2.92,1.15-3.92,2.69-3.92,6.05
		c0,10.22,0,20.44,0,30.65c0,0.33,0,0.65,0,1.03c-1.73,0-3.36,0-4.98,0c-1.21,0-2.26,0.46-3.21,1.28
		C6.86,45.46,6.44,46.6,6.03,47.75z M21,86.57c0-25.25,0-50.43,0-75.58c11.61,0,23.17,0,34.69,0c0,25.24,0,50.41,0,75.57
		c-4.97,0-9.88,0-14.88,0c0-5.4,0-10.76,0-16.1c-1.7,0-3.31,0-4.98,0c0,5.41,0,10.74,0,16.11C30.86,86.57,25.96,86.57,21,86.57z
		 M60.75,27.2c4.99,0,9.92,0,14.82,0c0,19.83,0,39.6,0,59.36c-4.97,0-9.88,0-14.82,0C60.75,66.76,60.75,47.01,60.75,27.2z
		 M15.91,48.78c0,1.78,0,3.55,0,5.34c-1.64,0-3.25,0-4.85,0c0-1.81,0-3.57,0-5.34C12.7,48.78,14.27,48.78,15.91,48.78z M15.92,59.61
		c0,1.82,0,3.58,0,5.31c-1.67,0-3.28,0-4.88,0c0-1.8,0-3.54,0-5.31C12.68,59.61,14.28,59.61,15.92,59.61z M15.94,75.74
		c-1.65,0-3.26,0-4.89,0c0-1.8,0-3.56,0-5.3c1.66,0,3.28,0,4.89,0C15.94,72.24,15.94,73.97,15.94,75.74z M15.94,81.22
		c0,1.83,0,3.56,0,5.33c-1.65,0-3.26,0-4.89,0c0-1.8,0-3.56,0-5.33C12.7,81.22,14.29,81.22,15.94,81.22z"/>
	<path class="st1" d="M35.9,21.7c1.64,0,3.23,0,4.87,0c0-1.76,0-3.51,0-5.31c-1.62,0-3.22,0-4.87,0C35.9,18.14,35.9,19.87,35.9,21.7
		z"/>
	<path class="st1" d="M50.71,27.18c-1.62,0-3.21,0-4.85,0c0,1.78,0,3.53,0,5.32c1.61,0,3.2,0,4.85,0
		C50.71,30.77,50.71,29.02,50.71,27.18z"/>
	<path class="st1" d="M40.8,32.48c0-1.78,0-3.51,0-5.29c-1.64,0-3.25,0-4.9,0c0,1.76,0,3.49,0,5.29
		C37.51,32.48,39.12,32.48,40.8,32.48z"/>
	<path class="st1" d="M25.99,32.53c1.64,0,3.21,0,4.84,0c0-1.77,0-3.52,0-5.32c-1.6,0-3.21,0-4.84,0
		C25.99,28.98,25.99,30.75,25.99,32.53z"/>
	<path class="st1" d="M50.71,37.97c-1.64,0-3.21,0-4.84,0c0,1.77,0,3.52,0,5.32c1.6,0,3.21,0,4.84,0
		C50.71,41.52,50.71,39.75,50.71,37.97z"/>
	<path class="st1" d="M40.77,37.99c-1.63,0-3.22,0-4.86,0c0,1.78,0,3.53,0,5.32c1.61,0,3.21,0,4.86,0
		C40.77,41.57,40.77,39.82,40.77,37.99z"/>
	<path class="st1" d="M30.83,37.99c-1.65,0-3.24,0-4.87,0c0,1.77,0,3.5,0,5.29c1.59,0,3.2,0,4.87,0
		C30.83,41.56,30.83,39.81,30.83,37.99z"/>
	<path class="st1" d="M50.73,48.78c-1.65,0-3.22,0-4.86,0c0,1.76,0,3.51,0,5.32c1.59,0,3.2,0,4.86,0
		C50.73,52.35,50.73,50.6,50.73,48.78z"/>
	<path class="st1" d="M30.83,16.37c-1.65,0-3.24,0-4.87,0c0,1.77,0,3.5,0,5.29c1.6,0,3.21,0,4.87,0
		C30.83,19.94,30.83,18.19,30.83,16.37z"/>
	<path class="st1" d="M30.85,54.12c0-1.77,0-3.5,0-5.29c-1.61,0-3.22,0-4.88,0c0,1.74,0,3.49,0,5.29
		C27.58,54.12,29.17,54.12,30.85,54.12z"/>
	<path class="st1" d="M45.86,64.96c1.65,0,3.22,0,4.85,0c0-1.76,0-3.51,0-5.32c-1.58,0-3.19,0-4.85,0
		C45.86,61.38,45.86,63.13,45.86,64.96z"/>
	<path class="st1" d="M40.78,59.59c-1.65,0-3.22,0-4.85,0c0,1.76,0,3.51,0,5.32c1.58,0,3.19,0,4.85,0
		C40.78,63.17,40.78,61.42,40.78,59.59z"/>
	<path class="st1" d="M30.84,59.59c-1.65,0-3.22,0-4.85,0c0,1.76,0,3.51,0,5.32c1.58,0,3.19,0,4.85,0
		C30.84,63.17,30.84,61.42,30.84,59.59z"/>
	<path class="st1" d="M45.87,75.75c1.64,0,3.23,0,4.87,0c0-1.76,0-3.49,0-5.29c-1.59,0-3.2,0-4.87,0
		C45.87,72.18,45.87,73.93,45.87,75.75z"/>
	<path class="st1" d="M45.85,16.38c0,1.77,0,3.5,0,5.29c1.61,0,3.22,0,4.88,0c0-1.74,0-3.49,0-5.29
		C49.12,16.38,47.53,16.38,45.85,16.38z"/>
	<path class="st1" d="M30.84,70.4c-1.65,0-3.22,0-4.86,0c0,1.76,0,3.51,0,5.32c1.59,0,3.2,0,4.86,0
		C30.84,73.97,30.84,72.23,30.84,70.4z"/>
	<path class="st1" d="M35.91,54.13c1.63,0,3.22,0,4.87,0c0-1.76,0-3.5,0-5.31c-1.61,0-3.22,0-4.87,0
		C35.91,50.57,35.91,52.3,35.91,54.13z"/>
	<path class="st1" d="M65.76,37.93c1.64,0,3.21,0,4.84,0c0-1.77,0-3.52,0-5.32c-1.6,0-3.21,0-4.84,0
		C65.76,34.39,65.76,36.16,65.76,37.93z"/>
	<path class="st1" d="M65.76,48.74c1.64,0,3.21,0,4.84,0c0-1.77,0-3.52,0-5.32c-1.6,0-3.21,0-4.84,0
		C65.76,45.2,65.76,46.97,65.76,48.74z"/>
	<path class="st1" d="M65.75,59.53c1.66,0,3.25,0,4.88,0c0-1.77,0-3.5,0-5.29c-1.61,0-3.22,0-4.88,0
		C65.75,55.97,65.75,57.72,65.75,59.53z"/>
	<path class="st1" d="M65.76,70.36c1.64,0,3.21,0,4.84,0c0-1.77,0-3.52,0-5.32c-1.6,0-3.21,0-4.84,0
		C65.76,66.82,65.76,68.59,65.76,70.36z"/>
	<path class="st1" d="M70.63,81.12c0-1.77,0-3.49,0-5.28c-1.63,0-3.24,0-4.9,0c0,1.75,0,3.48,0,5.28
		C67.33,81.12,68.94,81.12,70.63,81.12z"/>
</g>
</svg>
