<?xml version="1.0" encoding="utf-8"?>
<!-- Generator: Adobe Illustrator 23.0.3, SVG Export Plug-In . SVG Version: 6.00 Build 0)  -->
<svg version="1.1" id="Layer_1" xmlns="http://www.w3.org/2000/svg" xmlns:xlink="http://www.w3.org/1999/xlink" x="0px" y="0px"
	 viewBox="0 0 341.21 94.78" style="enable-background:new 0 0 341.21 94.78;" xml:space="preserve">
<style type="text/css">
	.st0{fill:#FFFFFF;}
	.st1{fill:#59C6D0;}
</style>
<g>
	<path class="st0" d="M90.72,44.61h-9.97L71.24,12.9h8.47l6.07,25.42l5.93-25.42h8.38L90.72,44.61z"/>
	<path class="st0" d="M123.43,32.97v1.36h-16.58c0.23,3.49,2.27,5.21,5.3,5.21c2.54,0,4.03-1.27,5.12-2.99l5.98,2.85
		c-2.36,3.71-6.12,5.84-11.51,5.84c-7.88,0-12.73-5.35-12.73-12.78c0-7.48,4.53-12.78,12.28-12.78
		C118.81,19.69,123.43,24.77,123.43,32.97z M106.8,29.79h8.92c-0.18-3.35-1.86-4.76-4.49-4.76C108.89,25.04,107.03,26.4,106.8,29.79
		z"/>
	<path class="st0" d="M142.18,19.83v7.25c-0.86-0.05-1.18-0.05-1.5-0.05c-3.67,0-6.57,1.54-6.57,8.15v9.42h-7.61V20.37h7.29v3.9
		c1.68-3.35,3.99-4.58,6.52-4.58C140.96,19.69,141.55,19.74,142.18,19.83z"/>
	<path class="st0" d="M164.83,23.36l-3.71,4.17c-2.13-1.63-4.12-2.45-6.52-2.45c-2.4,0-3.35,0.73-3.35,1.86
		c0,1.27,0.77,1.68,5.66,2.63c5.75,1.09,8.47,3.44,8.47,7.84c0,4.62-4.12,7.84-11.33,7.84c-5.62,0-9.15-1.63-12-4.12l3.62-4.35
		c2.54,2.17,5.07,2.94,7.47,2.94c2.9,0,4.21-0.77,4.21-1.99s-0.45-1.77-5.44-2.72c-5.75-1.09-8.56-3.31-8.56-7.57
		c0-4.98,4.76-7.75,10.92-7.75C158.94,19.69,162.48,21.23,164.83,23.36z"/>
	<path class="st0" d="M189.25,27.35v11.87c0,2.04,0.14,3.67,0.82,5.39h-7.38c-0.41-0.72-0.68-1.54-0.86-2.4
		c-1.68,2.22-4.12,3.04-6.98,3.04c-5.12,0-8.02-3.13-8.02-7.43c0-4.67,2.76-7.43,10.24-8.38l4.58-0.54V27.8
		c0-2.17-0.59-2.94-3.04-2.94c-2.31,0-3.22,0.82-3.31,2.81h-7.52c0.18-5.26,4.17-7.97,10.96-7.97
		C186.3,19.69,189.25,22.5,189.25,27.35z M178.83,33.83c-3.13,0.45-4.26,1.4-4.26,3.17c0,1.59,0.95,2.54,2.76,2.54
		c2.4,0,4.3-1.63,4.3-3.99v-2.13L178.83,33.83z M181.32,17.74h-5.53l4.58-7.16h9.01L181.32,17.74z"/>
	<path class="st0" d="M202.11,20.96h5.66v5.35h-5.66v9.97c0,1.99,0.59,2.9,2.72,2.9c1.22,0,2.17-0.18,3.31-0.45v5.71
		c-1.59,0.5-3.44,0.82-5.48,0.82c-6.12,0-8.15-2.9-8.15-7.79V26.31h-3.26v-5.35h3.26v-6.25h7.61V20.96z"/>
	<path class="st0" d="M218.91,13.03c0,2.31-2.04,4.12-4.35,4.12c-2.31,0-4.35-1.81-4.35-4.12c0-2.31,2.04-4.12,4.35-4.12
		C216.87,8.91,218.91,10.72,218.91,13.03z M218.37,44.61h-7.61V20.37h7.61V44.61z"/>
	<path class="st0" d="M230.33,44.61h-7.61V12.9h7.61V44.61z"/>
</g>
<g>
	<path class="st0" d="M106.73,59.86l-7.7,1.95c-1.31-3.22-3.22-4.8-6.61-4.8c-4.62,0-7.47,3.58-7.47,10.01
		c0,6.43,2.67,10.19,7.61,10.19c3.85,0,5.93-1.95,7.29-5.53l7.57,2.27c-2.54,6.48-8.33,9.83-15.13,9.83
		c-8.02,0-15.58-4.85-15.58-16.72c0-11.64,7.57-16.63,15.67-16.63C98.44,50.43,104.06,52.92,106.73,59.86z"/>
	<path class="st0" d="M134.59,70.82c0,7.66-5.07,12.78-13.09,12.78c-8.29,0-13.09-5.3-13.09-12.78c0-7.52,4.89-12.78,13.09-12.78
		C129.56,58.04,134.59,63.53,134.59,70.82z M116.37,70.73c0,4.62,1.9,6.93,5.12,6.93c3.17,0,5.07-2.31,5.07-6.93
		c0-4.71-1.99-6.75-5.07-6.75C118.37,63.98,116.37,66.02,116.37,70.73z"/>
	<path class="st0" d="M160.63,67.15v15.81h-7.61V69.32c0-3.31-0.82-4.89-3.35-4.89c-2.58,0-4.35,2.13-4.35,5.35v13.18h-7.61V58.72
		H145v3.26c1.81-2.76,4.44-3.94,7.66-3.94C157.69,58.04,160.63,61.31,160.63,67.15z"/>
	<path class="st0" d="M188.44,82.96h-7.29v-2.54c-1.77,2.17-4.3,3.17-7.02,3.17c-6.39,0-10.56-5.3-10.56-12.78
		c0-7.79,4.85-12.78,10.87-12.78c2.81,0,4.89,0.91,6.39,2.49v-9.29h7.61V82.96z M171.54,70.86c0,4.53,1.81,6.8,4.94,6.8
		c2.99,0,4.85-2.17,4.85-6.8c0-4.76-1.99-6.93-4.85-6.93C173.31,63.93,171.54,66.29,171.54,70.86z"/>
	<path class="st0" d="M217.79,70.82c0,7.66-5.07,12.78-13.09,12.78c-8.29,0-13.09-5.3-13.09-12.78c0-7.52,4.89-12.78,13.09-12.78
		C212.77,58.04,217.79,63.53,217.79,70.82z M199.58,70.73c0,4.62,1.9,6.93,5.12,6.93c3.17,0,5.07-2.31,5.07-6.93
		c0-4.71-1.99-6.75-5.07-6.75C201.58,63.98,199.58,66.02,199.58,70.73z"/>
	<path class="st0" d="M257.07,67.29v15.67h-7.61V69.64c0-3.76-0.63-5.21-2.95-5.21c-2.17,0-3.71,1.95-3.71,5.03v13.5h-7.61V69.64
		c0-3.76-0.45-5.21-2.95-5.21c-2.13,0-3.71,1.95-3.71,5.03v13.5h-7.61V58.72h7.29v2.81c1.86-2.4,3.94-3.49,7.02-3.49
		c3.26,0,5.53,1.45,6.61,3.94c1.81-2.67,4.39-3.94,7.66-3.94C254.48,58.04,257.07,61.31,257.07,67.29z"/>
	<path class="st0" d="M268.79,82.96h-7.61V58.72h7.61V82.96z M267.35,56.1h-5.53l4.58-7.16h9.01L267.35,56.1z"/>
	<path class="st0" d="M296.06,67.15v15.81h-7.61V69.32c0-3.31-0.82-4.89-3.35-4.89c-2.58,0-4.35,2.13-4.35,5.35v13.18h-7.61V58.72
		h7.29v3.26c1.81-2.76,4.44-3.94,7.66-3.94C293.12,58.04,296.06,61.31,296.06,67.15z"/>
	<path class="st0" d="M308.34,51.38c0,2.31-2.04,4.12-4.35,4.12c-2.31,0-4.35-1.81-4.35-4.12s2.04-4.12,4.35-4.12
		C306.3,47.26,308.34,49.07,308.34,51.38z M307.79,82.96h-7.61V58.72h7.61V82.96z"/>
	<path class="st0" d="M337.15,70.82c0,7.66-5.07,12.78-13.09,12.78c-8.29,0-13.09-5.3-13.09-12.78c0-7.52,4.89-12.78,13.09-12.78
		C332.12,58.04,337.15,63.53,337.15,70.82z M318.94,70.73c0,4.62,1.9,6.93,5.12,6.93c3.17,0,5.07-2.31,5.07-6.93
		c0-4.71-1.99-6.75-5.07-6.75C320.93,63.98,318.94,66.02,318.94,70.73z"/>
</g>
<g>
	<path class="st1" d="M4.19,46.18c0,13.29,0,26.58,0,39.86c0.04,0.07,0.11,0.13,0.13,0.2c0.44,2.37,2.58,4.22,5.3,4.21
		c21.25-0.05,42.5-0.03,63.76-0.03c3.33,0,5.39-2.22,5.39-5.81c0-19.56,0-39.12,0-58.68c0-3.5-2.07-5.76-5.27-5.77
		c-4.58-0.01-9.16,0-13.75,0c-0.27,0-0.55,0-0.87,0c0-0.42,0-0.73,0-1.03c0-3.26,0.01-6.53,0-9.79c-0.01-1.88-0.75-3.38-2.16-4.43
		c-0.56-0.42-1.24-0.65-1.87-0.96c-12.22,0-24.44,0-36.67,0c-0.04,0.04-0.07,0.09-0.12,0.11c-2.92,1.15-3.92,2.69-3.92,6.05
		c0,10.22,0,20.44,0,30.65c0,0.33,0,0.65,0,1.03c-1.73,0-3.36,0-4.98,0c-1.21,0-2.26,0.46-3.21,1.28
		C5.01,43.89,4.6,45.03,4.19,46.18z M19.16,85c0-25.25,0-50.43,0-75.58c11.61,0,23.17,0,34.69,0c0,25.24,0,50.41,0,75.57
		c-4.97,0-9.88,0-14.88,0c0-5.4,0-10.76,0-16.1c-1.7,0-3.31,0-4.98,0c0,5.41,0,10.74,0,16.11C29.02,85,24.11,85,19.16,85z
		 M58.91,25.63c4.99,0,9.92,0,14.82,0c0,19.83,0,39.6,0,59.36c-4.97,0-9.88,0-14.82,0C58.91,65.19,58.91,45.44,58.91,25.63z
		 M14.07,47.21c0,1.78,0,3.55,0,5.34c-1.64,0-3.25,0-4.85,0c0-1.81,0-3.57,0-5.34C10.85,47.21,12.43,47.21,14.07,47.21z
		 M14.08,58.03c0,1.82,0,3.58,0,5.31c-1.67,0-3.28,0-4.88,0c0-1.8,0-3.54,0-5.31C10.84,58.03,12.43,58.03,14.08,58.03z M14.1,74.17
		c-1.65,0-3.26,0-4.89,0c0-1.8,0-3.56,0-5.3c1.66,0,3.28,0,4.89,0C14.1,70.67,14.1,72.4,14.1,74.17z M14.1,79.65
		c0,1.83,0,3.56,0,5.33c-1.65,0-3.26,0-4.89,0c0-1.8,0-3.56,0-5.33C10.86,79.65,12.45,79.65,14.1,79.65z"/>
	<path class="st1" d="M34.06,20.13c1.64,0,3.23,0,4.87,0c0-1.76,0-3.51,0-5.31c-1.62,0-3.22,0-4.87,0
		C34.06,16.57,34.06,18.3,34.06,20.13z"/>
	<path class="st1" d="M48.87,25.6c-1.62,0-3.21,0-4.85,0c0,1.78,0,3.53,0,5.32c1.61,0,3.2,0,4.85,0
		C48.87,29.19,48.87,27.44,48.87,25.6z"/>
	<path class="st1" d="M38.96,30.91c0-1.78,0-3.51,0-5.29c-1.64,0-3.25,0-4.9,0c0,1.76,0,3.49,0,5.29
		C35.67,30.91,37.27,30.91,38.96,30.91z"/>
	<path class="st1" d="M24.14,30.95c1.64,0,3.21,0,4.84,0c0-1.77,0-3.52,0-5.32c-1.6,0-3.21,0-4.84,0
		C24.14,27.41,24.14,29.18,24.14,30.95z"/>
	<path class="st1" d="M48.87,36.4c-1.64,0-3.21,0-4.84,0c0,1.77,0,3.52,0,5.32c1.6,0,3.21,0,4.84,0
		C48.87,39.95,48.87,38.18,48.87,36.4z"/>
	<path class="st1" d="M38.93,36.41c-1.63,0-3.22,0-4.86,0c0,1.78,0,3.53,0,5.32c1.61,0,3.21,0,4.86,0
		C38.93,40,38.93,38.25,38.93,36.41z"/>
	<path class="st1" d="M28.99,36.42c-1.65,0-3.24,0-4.87,0c0,1.77,0,3.5,0,5.29c1.59,0,3.2,0,4.87,0
		C28.99,39.99,28.99,38.24,28.99,36.42z"/>
	<path class="st1" d="M48.88,47.21c-1.65,0-3.22,0-4.86,0c0,1.76,0,3.51,0,5.32c1.59,0,3.2,0,4.86,0
		C48.88,50.78,48.88,49.03,48.88,47.21z"/>
	<path class="st1" d="M28.99,14.8c-1.65,0-3.24,0-4.87,0c0,1.77,0,3.5,0,5.29c1.6,0,3.21,0,4.87,0
		C28.99,18.37,28.99,16.62,28.99,14.8z"/>
	<path class="st1" d="M29.01,52.54c0-1.77,0-3.5,0-5.29c-1.61,0-3.22,0-4.88,0c0,1.74,0,3.49,0,5.29
		C25.73,52.54,27.32,52.54,29.01,52.54z"/>
	<path class="st1" d="M44.01,63.39c1.65,0,3.22,0,4.85,0c0-1.76,0-3.51,0-5.32c-1.58,0-3.19,0-4.85,0
		C44.01,59.81,44.01,61.56,44.01,63.39z"/>
	<path class="st1" d="M38.94,58.02c-1.65,0-3.22,0-4.85,0c0,1.76,0,3.51,0,5.32c1.58,0,3.19,0,4.85,0
		C38.94,61.6,38.94,59.85,38.94,58.02z"/>
	<path class="st1" d="M28.99,58.02c-1.65,0-3.22,0-4.85,0c0,1.76,0,3.51,0,5.32c1.58,0,3.19,0,4.85,0
		C28.99,61.6,28.99,59.85,28.99,58.02z"/>
	<path class="st1" d="M44.02,74.18c1.64,0,3.23,0,4.87,0c0-1.76,0-3.49,0-5.29c-1.59,0-3.2,0-4.87,0
		C44.02,70.6,44.02,72.35,44.02,74.18z"/>
	<path class="st1" d="M44,14.81c0,1.77,0,3.5,0,5.29c1.61,0,3.22,0,4.88,0c0-1.74,0-3.49,0-5.29C47.28,14.81,45.69,14.81,44,14.81z"
		/>
	<path class="st1" d="M29,68.83c-1.65,0-3.22,0-4.86,0c0,1.76,0,3.51,0,5.32c1.59,0,3.2,0,4.86,0C29,72.4,29,70.65,29,68.83z"/>
	<path class="st1" d="M34.06,52.55c1.63,0,3.22,0,4.87,0c0-1.76,0-3.5,0-5.31c-1.61,0-3.22,0-4.87,0
		C34.06,49,34.06,50.73,34.06,52.55z"/>
	<path class="st1" d="M63.92,36.36c1.64,0,3.21,0,4.84,0c0-1.77,0-3.52,0-5.32c-1.6,0-3.21,0-4.84,0
		C63.92,32.81,63.92,34.58,63.92,36.36z"/>
	<path class="st1" d="M63.92,47.17c1.64,0,3.21,0,4.84,0c0-1.77,0-3.52,0-5.32c-1.6,0-3.21,0-4.84,0
		C63.92,43.62,63.92,45.39,63.92,47.17z"/>
	<path class="st1" d="M63.9,57.96c1.66,0,3.25,0,4.88,0c0-1.77,0-3.5,0-5.29c-1.61,0-3.22,0-4.88,0C63.9,54.4,63.9,56.15,63.9,57.96
		z"/>
	<path class="st1" d="M63.92,68.79c1.64,0,3.21,0,4.84,0c0-1.77,0-3.52,0-5.32c-1.6,0-3.21,0-4.84,0
		C63.92,65.24,63.92,67.01,63.92,68.79z"/>
	<path class="st1" d="M68.79,79.55c0-1.77,0-3.49,0-5.28c-1.63,0-3.24,0-4.9,0c0,1.75,0,3.48,0,5.28
		C65.49,79.55,67.1,79.55,68.79,79.55z"/>
</g>
</svg>
