<svg xmlns="http://www.w3.org/2000/svg" viewBox="0 0 647 100.11"><title>white---Asset 4</title><path d="M80.33,27,53.55,98.93H26.91L0,27H25.55L40.3,69.31,54.78,27Z" style="fill:#fff"/><path d="M156.15,54.15V70.72H124.73v9.4h40.16V98.93h-63V27h63V45.81H124.73v8.35Z" style="fill:#fff"/><path d="M244,70l18.58,28.91h-26.5L221.59,73.55h-8.33V98.93H190.44V27H229c15.85,0,27.46,9.4,27.46,23.39C256.42,59.21,251.37,66.14,244,70ZM225.82,43.46H213.25v14h12.57c5.33,0,8.33-2.82,8.33-7.05S230.19,43.46,225.82,43.46Z" style="fill:#fff"/><path d="M311.07,100.11c-20.77,0-32.38-7.41-32.38-7.41l8.88-17.51s14.89,6.46,21.17,6.46c7,0,11.07-2.12,11.07-5.64,0-8.11-35-4.58-35-27.5,0-13,9.7-22.57,31.28-22.57,19.95,0,27.73,7.29,27.73,7.29l-7.24,14.46a39,39,0,0,0-17.76-4.58c-5.74,0-10.38,1.88-10.38,5.29,0,9.05,35.93,4,35.93,25.74C344.4,90.47,327.46,100.11,311.07,100.11Z" style="fill:#fff"/><path d="M421.86,27l23.77,71.93H422.82l-5.33-14.57H393.72l-5.33,14.57H365.58L389.21,27Zm-23,39.61H412.3l-6.69-21.86Z" style="fill:#fff"/><path d="M454,45.22V27h70.36V45.22H500.55V98.93H477.74V45.22Z" style="fill:#fff"/><path d="M573.1,98.93H550.28V27H573.1Z" style="fill:#fff"/><path d="M647,80.13V98.93H600.42V27h22.81V80.13Z" style="fill:#fff"/><path d="M416.12,18h-24l5.93-18h29.85Z" style="fill:#fff"/><rect x="529.78" y="38.9" width="5.85" height="5.85" style="fill:#fff"/><rect x="539.61" y="38.9" width="5.85" height="5.85" style="fill:#fff"/><rect x="529.78" y="49.83" width="5.85" height="5.85" style="fill:#fff"/><rect x="539.61" y="49.83" width="5.85" height="5.85" style="fill:#fff"/><rect x="529.78" y="60.77" width="5.85" height="5.85" style="fill:#fff"/><rect x="539.61" y="60.77" width="5.85" height="5.85" style="fill:#fff"/><rect x="529.78" y="71.7" width="5.85" height="5.85" style="fill:#fff"/><rect x="539.61" y="71.7" width="5.85" height="5.85" style="fill:#fff"/><rect x="507.03" y="60.77" width="5.85" height="5.85" style="fill:#fff"/><rect x="516.86" y="60.77" width="5.85" height="5.85" style="fill:#fff"/><rect x="507.03" y="71.7" width="5.85" height="5.85" style="fill:#fff"/><rect x="516.86" y="71.7" width="5.85" height="5.85" style="fill:#fff"/><rect x="509.86" y="86.36" width="10.92" height="12.57" style="fill:#fff"/><rect x="531.32" y="86.07" width="10.92" height="12.57" style="fill:#fff"/></svg>